<svg xmlns="http://www.w3.org/2000/svg" fill="#a77cf2" height="485.017" width="485.017"><path d="M361.205 68.899c-14.663 0-28.447 5.71-38.816 16.078-21.402 21.403-21.402 56.228 0 77.631a54.53 54.53 0 0 0 38.815 16.078c14.662 0 28.447-5.71 38.816-16.078 21.402-21.403 21.402-56.228 0-77.631a54.53 54.53 0 0 0-38.815-16.078zm17.602 72.495a24.73 24.73 0 0 1-35.206.001c-9.706-9.706-9.706-25.499 0-35.205a24.73 24.73 0 0 1 35.206 0c9.706 9.706 9.706 25.498 0 35.204zm63.154-98.358C414.21 15.284 377.311 0 338.064 0s-76.146 15.284-103.897 43.036c-42.226 42.226-54.491 105.179-32.065 159.698L.254 404.584.089 484.852l144.562.165v-55.722h55.705V373.59h55.705v-64.492l26.212-26.212a147.96 147.96 0 0 0 55.799 10.976c39.244 0 76.14-15.282 103.889-43.032 57.289-57.289 57.289-150.505 0-207.794zm-21.213 186.581c-22.083 22.083-51.445 34.245-82.676 34.245-18.133 0-36.237-4.265-52.353-12.333l-9.672-4.842-49.986 49.985v46.918h-55.705v55.705h-55.705v55.688l-84.5-.096.078-37.85L238.311 208.95l-4.842-9.672c-22.572-45.087-13.767-99.351 21.911-135.029C277.466 42.163 306.83 30 338.064 30s60.598 12.163 82.684 34.249c45.592 45.592 45.592 119.776 0 165.368z"/><path d="M247 116h67v153h-67z"/><path d="M307 152h103v114H307z"/><path d="M394 70h47v183h-47z"/><path d="M431 86h17v132h-17z"/><path d="M436 110h18v111h-18z"/><path d="M438 102h19v92h-19zM261 42h173v45H261z"/><path d="M279 28h113v21H279zm-36 23h77v115h-77z"/><path d="M301 69h24v30h-24zm-82 4h50v114h-50z"/><path d="M224 170h29v108h-29z"/><path d="M210 220h56v64h-56z"/><path d="M198 229h40v66h-40z"/><path d="M183 241h63v79h-63z"/><path d="M162 260h76v89h-76z"/><path d="M138 277h42v131h-42z"/><path d="M115 295h30v113h-30z"/><path d="M100 329h18v135h-18z"/><path d="M27 388h83v73H27z"/><path d="M73 342h46v49H73z"/><path d="M58 372h22v21H58z"/></svg>